<?xml version="1.0" encoding="UTF-8" standalone="no"?>
<!-- Created with Inkscape (http://www.inkscape.org/) -->

<svg
   width="187.76955mm"
   height="218.85919mm"
   viewBox="0 0 187.76955 218.85919"
   version="1.1"
   id="svg1"
   xml:space="preserve"
   inkscape:version="1.3 (1:1.3+202307231459+0e150ed6c4)"
   sodipodi:docname="missing-person-avatar.svg"
   inkscape:export-filename="missing-person-avatar-1.svg"
   inkscape:export-xdpi="96"
   inkscape:export-ydpi="96"
   xmlns:inkscape="http://www.inkscape.org/namespaces/inkscape"
   xmlns:sodipodi="http://sodipodi.sourceforge.net/DTD/sodipodi-0.dtd"
   xmlns="http://www.w3.org/2000/svg"
   xmlns:svg="http://www.w3.org/2000/svg"><sodipodi:namedview
     id="namedview1"
     pagecolor="#ffffff"
     bordercolor="#000000"
     borderopacity="0.25"
     inkscape:showpageshadow="2"
     inkscape:pageopacity="0.0"
     inkscape:pagecheckerboard="0"
     inkscape:deskcolor="#d1d1d1"
     inkscape:document-units="mm"
     inkscape:zoom="0.37039777"
     inkscape:cx="-365.82294"
     inkscape:cy="426.56844"
     inkscape:window-width="2560"
     inkscape:window-height="1376"
     inkscape:window-x="0"
     inkscape:window-y="27"
     inkscape:window-maximized="1"
     inkscape:current-layer="layer1" /><defs
     id="defs1" /><g
     inkscape:label="Layer 1"
     inkscape:groupmode="layer"
     id="layer1"
     transform="translate(-11.109761,-30.669318)"><path
       id="path2"
       style="fill:#666666;fill-opacity:1;fill-rule:nonzero;stroke:none;stroke-width:2;stroke-opacity:1"
       d="m 6.0859375,108.88086 c -4.5998783,0.20462 -9.1344714,1.13203 -13.6093523,2.16615 -3.3216892,0.77821 -6.4592272,2.31085 -9.0503162,4.53954 -3.808067,3.21972 -7.162559,6.94894 -10.27336,10.83665 -2.675904,3.41938 -5.20396,7.28158 -5.556761,11.72836 -0.44707,3.74766 0.24859,7.48666 0.88325,11.16798 0.531379,3.94753 0.921138,7.94931 1.32529,11.88554 0.232316,1.86858 -0.05147,3.70079 -0.18952,5.5531 -0.05818,3.67944 0.871478,7.27763 1.568682,10.86543 0.725876,3.1654 1.269701,6.39413 2.375527,9.45633 0.813836,2.37645 3.069631,3.81181 4.119986,6.05422 1.916974,3.76245 3.766689,7.63596 5.019856,11.63537 0.473338,1.72694 1.03929,3.65257 0.575192,5.5242 -0.692737,2.448 -2.784139,4.1937 -4.614255,5.71018 -4.987259,3.86278 -10.602917,6.78669 -15.900445,10.18093 -10.626139,6.61591 -20.764858,14.36366 -28.516157,24.2894 -6.433296,8.23028 -10.872978,17.81029 -14.543757,27.53372 -4.790027,12.83382 -8.118039,26.15764 -11.05216,39.5224 -0.384783,2.1919 -0.953115,4.61271 0.06135,6.71964 1.068187,2.02121 3.497147,2.63443 5.582503,2.96711 4.822413,0.69036 9.715241,0.49224 14.571662,0.44524 26.886083,-0.67249 53.787837,-1.65555 80.5581359,-4.32879 14.3948421,-1.48585 28.7883971,-3.36022 42.8863311,-6.67965 9.315341,-2.26156 18.694078,-5.09919 26.778322,-10.40391 6.178641,-4.02806 11.424302,-9.71916 14.172861,-16.6269 3.006817,-7.32892 3.153592,-15.50433 1.923248,-23.23686 -0.919744,-5.4291 -2.139532,-10.84476 -4.168956,-15.97736 -1.679341,-4.29252 -4.367997,-8.20964 -7.948638,-11.13544 -4.429919,-3.62566 -9.481341,-6.39365 -14.493512,-9.12206 -8.869204,-4.74402 -18.042785,-8.88806 -27.242315,-12.94136 -2.610978,-1.25231 -5.573898,-2.37916 -7.205256,-4.92429 -1.606126,-2.50258 -1.931541,-5.77929 -0.785479,-8.53378 1.360456,-3.48454 1.822867,-7.27806 3.468076,-10.65405 1.120809,-2.21777 3.561829,-3.57811 4.53524,-5.96189 1.462152,-3.35798 2.13108,-6.98709 3.014716,-10.52377 0.677334,-3.18189 1.479263,-6.3847 1.501499,-9.65521 0.04386,-1.73173 -0.809475,-3.28911 -1.109375,-4.95508 -0.280745,-3.26525 0.416634,-6.4387 0.871563,-9.65764 0.59461,-4.20973 1.487532,-8.55991 0.446796,-12.774 -1.054266,-4.00742 -3.349453,-7.52745 -5.350051,-11.10698 -2.140901,-3.51578 -3.916259,-7.39699 -7.022595,-10.19719 -3.411892,-2.96223 -7.746812,-4.52755 -11.93145,-6.05239 -5.059237,-1.70637 -10.25861,-3.53445 -15.6763725,-3.33289 z"
       transform="translate(102.97226,-78.196255)"
       inkscape:export-filename="./path2.svg"
       inkscape:export-xdpi="96"
       inkscape:export-ydpi="96" /></g></svg>
